<svg xmlns="http://www.w3.org/2000/svg" width="64" height="64" viewBox="0 0 64 64" fill="none">
  <path fill-rule="evenodd" clip-rule="evenodd" d="M44.00 26.00L44.00 25.00L43.00 25.00L43.00 29.00L41.00 29.00L41.00 30.00L40.00 30.00L40.00 29.00L39.00 29.00L39.00 26.00L38.00 26.00L38.00 24.00L31.00 24.00L31.00 23.00L29.00 23.00L29.00 24.00L22.00 24.00L22.00 40.00L28.00 40.00L28.00 41.00L30.00 41.00L30.00 44.00L28.00 44.00L28.00 45.00L25.00 45.00L25.00 44.00L23.00 44.00L23.00 46.00L24.00 46.00L24.00 49.00L25.00 49.00L25.00 51.00L26.00 51.00L26.00 53.00L27.00 53.00L28.00 55.00L30.00 55.00L30.00 56.00L33.00 56.00L33.00 55.00L34.00 55.00L34.00 56.00L35.00 56.00L35.00 59.00L34.00 59.00L34.00 60.00L21.00 59.00L21.00 58.00L19.00 58.00L19.00 57.00L15.00 56.00L15.00 55.00L14.00 55.00L13.00 53.00L11.00 53.00L11.00 52.00L10.00 52.00L10.00 50.00L9.00 50.00L9.00 49.00L8.00 49.00L8.00 48.00L6.00 47.00L6.00 44.00L5.00 44.00L5.00 42.00L4.00 42.00L4.00 39.00L3.00 39.00L3.00 33.00L2.00 33.00L2.00 30.00L3.00 30.00L3.00 24.00L4.00 24.00L4.00 21.00L5.00 21.00L6.00 17.00L7.00 17.00L7.00 16.00L9.00 15.00L9.00 13.00L10.00 13.00L11.00 11.00L13.00 11.00L13.00 10.00L14.00 10.00L15.00 8.00L17.00 8.00L17.00 7.00L20.00 7.00L20.00 6.00L22.00 6.00L22.00 5.00L28.00 5.00L28.00 4.00L34.00 4.00L34.00 5.00L39.00 5.00L39.00 6.00L41.00 6.00L41.00 7.00L44.00 7.00L45.00 9.00L47.00 9.00L47.00 10.00L48.00 10.00L48.00 11.00L49.00 11.00L49.00 12.00L50.00 12.00L50.00 13.00L52.00 14.00L52.00 16.00L54.00 17.00L54.00 19.00L55.00 19.00L55.00 21.00L56.00 21.00L56.00 23.00L57.00 23.00L57.00 28.00L58.00 28.00L58.00 34.00L57.00 34.00L57.00 35.00L55.00 35.00L55.00 34.00L54.00 34.00L54.00 31.00L53.00 31.00L53.00 29.00L51.00 29.00L51.00 28.00L49.00 28.00L49.00 27.00L47.00 27.00L47.00 26.00L44.00 26.00Z M40.00 36.00L41.00 36.00L41.00 37.00L44.00 37.00L44.00 38.00L47.00 38.00L47.00 39.00L49.00 39.00L49.00 40.00L52.00 40.00L52.00 41.00L58.00 42.00L58.00 43.00L60.00 43.00L60.00 44.00L62.00 44.00L62.00 45.00L63.00 45.00L63.00 49.00L62.00 49.00L62.00 50.00L59.00 50.00L59.00 51.00L53.00 52.00L53.00 54.00L52.00 54.00L52.00 57.00L51.00 57.00L51.00 60.00L50.00 60.00L50.00 62.00L49.00 62.00L49.00 63.00L45.00 63.00L45.00 62.00L44.00 62.00L44.00 60.00L43.00 60.00L43.00 57.00L42.00 57.00L42.00 54.00L41.00 54.00L41.00 51.00L40.00 51.00L40.00 49.00L39.00 49.00L39.00 46.00L38.00 46.00L38.00 43.00L37.00 43.00L37.00 40.00L36.00 40.00L36.00 38.00L37.00 38.00L38.00 36.00L40.00 36.00Z M51.00 20.00L49.00 19.00L49.00 17.00L48.00 17.00L48.00 16.00L47.00 16.00L46.00 14.00L44.00 14.00L44.00 13.00L43.00 13.00L42.00 11.00L39.00 11.00L39.00 10.00L38.00 10.00L38.00 11.00L39.00 11.00L39.00 13.00L40.00 13.00L40.00 15.00L41.00 15.00L41.00 19.00L42.00 19.00L43.00 21.00L47.00 21.00L47.00 22.00L50.00 22.00L50.00 23.00L52.00 24.00L51.00 20.00Z M37.00 18.00L37.00 16.00L36.00 16.00L35.00 12.00L34.00 12.00L34.00 11.00L33.00 11.00L32.00 9.00L30.00 9.00L30.00 8.00L29.00 8.00L29.00 9.00L28.00 9.00L28.00 10.00L26.00 11.00L26.00 13.00L25.00 13.00L25.00 15.00L24.00 15.00L24.00 19.00L23.00 19.00L23.00 20.00L25.00 20.00L25.00 19.00L36.00 19.00L36.00 20.00L37.00 20.00L37.00 18.00Z M42.00 43.00L42.00 45.00L43.00 45.00L43.00 48.00L44.00 48.00L44.00 51.00L45.00 51.00L45.00 53.00L46.00 53.00L46.00 56.00L47.00 56.00L47.00 54.00L48.00 54.00L48.00 51.00L49.00 51.00L50.00 49.00L52.00 49.00L52.00 48.00L55.00 48.00L55.00 46.00L53.00 46.00L53.00 45.00L50.00 45.00L50.00 44.00L47.00 44.00L47.00 43.00L45.00 43.00L45.00 42.00L42.00 42.00L42.00 41.00L41.00 41.00L41.00 43.00L42.00 43.00Z M13.00 17.00L12.00 17.00L12.00 18.00L10.00 19.00L10.00 21.00L9.00 21.00L9.00 23.00L8.00 23.00L8.00 24.00L9.00 24.00L9.00 23.00L12.00 23.00L12.00 22.00L15.00 22.00L15.00 21.00L18.00 21.00L18.00 20.00L19.00 20.00L19.00 16.00L20.00 16.00L20.00 13.00L21.00 13.00L21.00 11.00L22.00 11.00L22.00 10.00L21.00 10.00L21.00 11.00L18.00 11.00L18.00 12.00L17.00 12.00L17.00 13.00L16.00 13.00L15.00 15.00L13.00 15.00L13.00 17.00Z M16.00 43.00L14.00 43.00L14.00 42.00L11.00 42.00L11.00 41.00L9.00 41.00L9.00 40.00L8.00 40.00L8.00 41.00L9.00 41.00L9.00 43.00L10.00 43.00L10.00 45.00L11.00 45.00L11.00 46.00L13.00 47.00L13.00 49.00L15.00 49.00L15.00 50.00L16.00 50.00L17.00 52.00L19.00 52.00L19.00 53.00L21.00 53.00L21.00 54.00L22.00 54.00L22.00 52.00L21.00 52.00L21.00 50.00L20.00 50.00L20.00 47.00L19.00 47.00L19.00 44.00L18.00 44.00L18.00 43.00L16.00 43.00Z M13.00 38.00L16.00 38.00L16.00 39.00L18.00 39.00L18.00 33.00L17.00 33.00L17.00 30.00L18.00 30.00L18.00 25.00L15.00 25.00L15.00 26.00L13.00 26.00L13.00 27.00L11.00 27.00L11.00 28.00L9.00 28.00L9.00 29.00L7.00 30.00L7.00 34.00L8.00 34.00L9.00 36.00L13.00 37.00L13.00 38.00Z" fill="currentColor"/>
</svg>
