<svg xmlns="http://www.w3.org/2000/svg" width="64" height="64" viewBox="0 0 24 24" fill="none">
  <path fill-rule="evenodd" clip-rule="evenodd" d="M6.75,1.25 H17.25 A5.5,5.5 0 0 1 22.75,6.75 V17.25 A5.5,5.5 0 0 1 17.25,22.75 H6.75 A5.5,5.5 0 0 1 1.25,17.25 V6.75 A5.5,5.5 0 0 1 6.75,1.25 Z M7,2.75 A4.25,4.25 0 0 0 2.75,7 V17 A4.25,4.25 0 0 0 7,21.25 H17 A4.25,4.25 0 0 0 21.25,17 V7 A4.25,4.25 0 0 0 17,2.75 Z" fill="currentColor"/>
  <path d="M5.25,5.25 H12.25 V13.25 H5.25 Z" fill="currentColor"/>
  <path d="M13.25,5.25 H18.75 V9.25 H13.25 Z" fill="currentColor"/>
  <path d="M13.25,10.25 H18.75 V18.75 H13.25 Z" fill="currentColor"/>
  <path d="M5.25,14.25 H12.25 V18.75 H5.25 Z" fill="currentColor"/>
</svg>
